# Media Information
<pre>
General
Unique ID                      : 184560235730245892015384950238475023847 (0x8A9B2C3D4E5F6A7B8C9D0E1F2A3B4C5D)
Complete name                  : BIONICLE.3.Arnyak.Halojaban.2005.HUN.PAL.DVD9-BANYIT.iso
Format                         : ISO
Format profile                 : DVD Video
File size                      : 7.42 GiB
Duration                       : 1 h 12 min
Overall bit rate mode          : Variable
Overall bit rate               : 14.6 Mb/s
Movie name                     : BIONICLE 3. – Árnyak hálójában

Video
ID                             : 224 (0xE0)
Format                         : MPEG Video
Format version                 : Version 2
Format profile                 : Main@Main
Format settings, BVOP          : Yes
Format settings, Matrix        : Default
Format settings, GOP           : M=3, N=12
Duration                       : 1 h 12 min
Bit rate mode                  : Variable
Bit rate                       : 7 500 kb/s
Maximum bit rate               : 9 800 kb/s
Width                          : 720 pixels
Height                         : 576 pixels
Display aspect ratio           : 16:9
Frame rate                     : 25.000 FPS
Standard                       : PAL
Color space                    : YUV
Chroma subsampling             : 4:2:0
Bit depth                      : 8 bits
Scan type                      : Interlaced
Scan order                     : Top Field First
Compression mode               : Lossy

Audio #1
ID                             : 128 (0x80)
Format                         : AC-3
Format/Info                    : Audio Coding 3
Commercial name                : Dolby Digital
Duration                       : 1 h 12 min
Bit rate mode                  : Constant
Bit rate                       : 448 kb/s
Channel(s)                     : 6 channels
Channel layout                 : L R C LFE Ls Rs
Sampling rate                  : 48.0 kHz
Frame rate                     : 31.250 FPS (1536 SPF)
Bit depth                      : 16 bits
Compression mode               : Lossy
Stream size                    : 232 MiB (3%)
Language                       : Hungarian
Service kind                   : Complete Main

Audio #2
ID                             : 129 (0x81)
Format                         : AC-3
Format/Info                    : Audio Coding 3
Commercial name                : Dolby Digital
Duration                       : 1 h 12 min
Bit rate mode                  : Constant
Bit rate                       : 448 kb/s
Channel(s)                     : 6 channels
Channel layout                 : L R C LFE Ls Rs
Sampling rate                  : 48.0 kHz
Frame rate                     : 31.250 FPS (1536 SPF)
Bit depth                      : 16 bits
Compression mode               : Lossy
Stream size                    : 232 MiB (3%)
Language                       : English
Service kind                   : Complete Main

Audio #3
ID                             : 130 (0x82)
Format                         : AC-3
Format/Info                    : Audio Coding 3
Commercial name                : Dolby Digital
Duration                       : 1 h 12 min
Bit rate mode                  : Constant
Bit rate                       : 384 kb/s
Channel(s)                     : 6 channels
Channel layout                 : L R C LFE Ls Rs
Sampling rate                  : 48.0 kHz
Frame rate                     : 31.250 FPS (1536 SPF)
Bit depth                      : 16 bits
Compression mode               : Lossy
Stream size                    : 199 MiB (3%)
Language                       : Czech
Service kind                   : Complete Main

Audio #4
ID                             : 131 (0x83)
Format                         : AC-3
Format/Info                    : Audio Coding 3
Commercial name                : Dolby Digital
Duration                       : 1 h 12 min
Bit rate mode                  : Constant
Bit rate                       : 384 kb/s
Channel(s)                     : 6 channels
Channel layout                 : L R C LFE Ls Rs
Sampling rate                  : 48.0 kHz
Frame rate                     : 31.250 FPS (1536 SPF)
Bit depth                      : 16 bits
Compression mode               : Lossy
Stream size                    : 199 MiB (3%)
Language                       : Slovak
Service kind                   : Complete Main

Text #1
ID                             : 0x20
Format                         : RLE
Format/Info                    : Run-length encoding
Muxing mode                    : DVD-Video
Language                       : Hungarian

Text #2
ID                             : 0x21
Format                         : RLE
Format/Info                    : Run-length encoding
Muxing mode                    : DVD-Video
Language                       : English

Text #3
ID                             : 0x22
Format                         : RLE
Format/Info                    : Run-length encoding
Muxing mode                    : DVD-Video
Language                       : Czech

Text #4
ID                             : 0x23
Format                         : RLE
Format/Info                    : Run-length encoding
Muxing mode                    : DVD-Video
Language                       : Slovak
</pre>